<svg width="650" height="808" viewBox="0 0 650 808" fill="none" xmlns="http://www.w3.org/2000/svg">
<g filter="url(#filter0_d_178_258)">
<path fill-rule="evenodd" clip-rule="evenodd" d="M730.664 535.929C689.583 480.118 437.4 539.432 351.753 561.495C266.106 583.559 94.8729 572.32 100.372 484.675C105.738 399.157 194.716 350.761 242.174 280.134C283.039 219.318 291.183 121.599 358.823 100.047C427.536 78.1529 480.419 173.938 551.327 181.628C634.117 190.606 720.939 106.18 793.817 147.22C867.014 188.439 908.103 289.849 898.789 377.296C889.754 462.128 810.027 516.693 748.416 573.496C705.148 613.388 759.575 690.117 703.561 702.742C656.951 713.248 762.72 575.582 730.664 535.929Z" fill="#0098D9"/>
</g>
<defs>
<filter id="filter0_d_178_258" x="0.243164" y="0.802002" width="999.852" height="806.51" filterUnits="userSpaceOnUse" color-interpolation-filters="sRGB">
<feFlood flood-opacity="0" result="BackgroundImageFix"/>
<feColorMatrix in="SourceAlpha" type="matrix" values="0 0 0 0 0 0 0 0 0 0 0 0 0 0 0 0 0 0 127 0" result="hardAlpha"/>
<feOffset dy="4"/>
<feGaussianBlur stdDeviation="50"/>
<feComposite in2="hardAlpha" operator="out"/>
<feColorMatrix type="matrix" values="0 0 0 0 0 0 0 0 0 0 0 0 0 0 0 0 0 0 0.25 0"/>
<feBlend mode="normal" in2="BackgroundImageFix" result="effect1_dropShadow_178_258"/>
<feBlend mode="normal" in="SourceGraphic" in2="effect1_dropShadow_178_258" result="shape"/>
</filter>
</defs>
</svg>
