<svg width="661" height="673" viewBox="0 0 661 673" fill="none" xmlns="http://www.w3.org/2000/svg">
<path fill-rule="evenodd" clip-rule="evenodd" d="M684.5 673C586 567 314.266 537 340 507C340 461.5 248.353 507.079 207.285 482.441C138.662 441.27 12.428 440.327 1.58079 367.398C-8.61916 298.82 110.764 256.515 164.889 197.392C219.53 137.705 240.239 52.8821 319.786 19.8094C401.491 -14.1608 495.465 1.20708 572.509 27.918C644.585 52.906 709.508 98.2998 730.114 162.067C748.87 220.11 675.185 280.721 674.234 342.712C673.167 412.179 746.965 467.403 724.369 536.42C696.672 621.014 786.627 667.046 684.5 673Z" fill="#C4C4C4"/>
</svg>
