<svg width="188" height="191" viewBox="0 0 188 191" fill="none" xmlns="http://www.w3.org/2000/svg">
<path d="M152.5 5V156H5" stroke="black" stroke-width="10" stroke-linecap="round"/>
<path d="M155.571 165.398C157.648 165.368 159.127 167.408 158.451 169.372L154.863 179.814C154.074 182.112 151.023 182.567 149.597 180.6L142.145 170.318C140.72 168.351 142.102 165.593 144.531 165.558L155.571 165.398Z" fill="black"/>
<path d="M166.54 162.397C164.592 163.121 162.516 161.695 162.494 159.617L162.375 148.577C162.349 146.147 165.071 144.696 167.074 146.072L177.54 153.262C179.543 154.638 179.165 157.699 176.887 158.546L166.54 162.397Z" fill="black"/>
<path d="M162.56 168.955C162.025 166.708 164.123 164.725 166.336 165.385L175.465 168.107C177.678 168.767 178.347 171.576 176.669 173.162L169.746 179.707C168.068 181.294 165.302 180.469 164.767 178.222L162.56 168.955Z" fill="black"/>
</svg>
