<svg width="734" height="752" viewBox="0 0 734 752" fill="none" xmlns="http://www.w3.org/2000/svg">
<path fill-rule="evenodd" clip-rule="evenodd" d="M540.553 751.012C425.777 757.704 400.113 622.507 322.369 559.855C286.069 530.602 248.353 507.078 207.286 482.44C138.662 441.269 12.4282 440.326 1.58101 367.397C-8.61894 298.819 110.764 256.514 164.889 197.391C219.53 137.704 240.24 52.881 319.786 19.8083C401.491 -14.1619 495.465 1.20591 572.509 27.9168C644.585 52.9048 709.508 98.2988 730.114 162.066C748.871 220.109 675.185 280.72 674.234 342.711C673.168 412.178 746.965 467.402 724.369 536.419C696.672 621.013 642.681 745.058 540.553 751.012Z" fill="#C4C4C4"/>
</svg>
